<?xml version="1.0" standalone="no"?>
<!DOCTYPE svg PUBLIC "-//W3C//DTD SVG 20010904//EN"
 "http://www.w3.org/TR/2001/REC-SVG-20010904/DTD/svg10.dtd">
<svg version="1.0" xmlns="http://www.w3.org/2000/svg"
 width="512.000000pt" height="512.000000pt" viewBox="0 0 512.000000 512.000000"
 preserveAspectRatio="xMidYMid meet">

<g transform="translate(0.000000,512.000000) scale(0.100000,-0.100000)"
fill="#000000" stroke="none">
<path d="M2506 5105 c-38 -20 -31 -10 -238 -359 -127 -214 -178 -308 -178
-330 0 -44 35 -95 77 -112 33 -14 48 -14 153 0 149 20 332 20 483 0 109 -15
122 -15 153 -1 41 20 64 54 71 104 4 35 -10 63 -174 338 -98 165 -185 310
-194 322 -19 28 -66 53 -99 53 -14 0 -38 -7 -54 -15z m111 -445 l52 -90 -109
0 -109 0 52 90 c29 49 54 89 57 89 3 0 28 -40 57 -89z"/>
<path d="M806 4399 c-40 -11 -74 -46 -86 -87 -8 -29 4 -87 80 -384 49 -192 95
-359 103 -372 23 -34 80 -58 122 -50 42 8 64 27 141 129 80 105 215 239 327
325 49 38 96 79 105 91 23 33 20 100 -6 137 -27 38 -37 41 -412 135 -360 91
-339 87 -374 76z m302 -313 c52 -14 96 -26 98 -29 3 -3 -28 -37 -67 -76 -40
-39 -75 -69 -77 -67 -3 3 -51 182 -52 194 0 3 -4 4 98 -22z"/>
<path d="M3930 4321 c-190 -48 -355 -93 -367 -99 -51 -28 -74 -123 -41 -171 9
-12 56 -53 105 -91 112 -86 247 -220 327 -325 77 -102 99 -121 141 -129 41 -8
99 16 121 49 19 29 186 680 186 727 1 59 -40 107 -102 121 -15 4 -162 -29
-370 -82z m180 -213 c-1 -13 -49 -191 -53 -194 -2 -3 -37 28 -76 67 -39 39
-70 74 -67 76 8 8 196 56 196 51z"/>
<path d="M2430 4174 c-416 -48 -715 -185 -994 -453 -260 -252 -412 -546 -477
-921 -17 -97 -17 -383 0 -480 64 -373 216 -668 472 -916 256 -247 526 -382
889 -445 97 -17 383 -17 480 0 373 64 665 215 916 473 306 314 458 688 458
1128 0 437 -150 809 -453 1124 -247 255 -538 408 -896 472 -80 14 -329 26
-395 18z m305 -254 c245 -35 495 -143 683 -294 249 -201 417 -477 488 -806 26
-120 26 -400 0 -520 -75 -347 -257 -634 -536 -844 -86 -65 -280 -164 -391
-200 -154 -49 -233 -61 -419 -61 -249 0 -390 33 -615 145 -376 186 -638 530
-731 960 -26 120 -26 400 0 520 74 342 254 630 520 831 180 137 417 236 641
268 84 12 277 12 360 1z"/>
<path d="M1948 2994 c-83 -45 -81 -206 3 -250 40 -20 113 -20 145 1 83 54 84
195 2 245 -39 24 -111 26 -150 4z"/>
<path d="M2989 2971 c-36 -36 -39 -43 -39 -96 0 -94 48 -147 135 -147 91 0
141 59 133 157 -4 51 -9 62 -41 92 -33 29 -43 33 -93 33 -52 0 -59 -3 -95 -39z"/>
<path d="M2154 2586 c-90 -40 -100 -161 -21 -244 76 -80 205 -121 402 -129
266 -10 465 57 524 179 25 53 27 88 5 133 -20 43 -57 67 -105 69 -48 1 -83
-18 -113 -64 -28 -42 -69 -58 -187 -70 -158 -15 -321 16 -351 69 -31 55 -100
81 -154 57z"/>
<path d="M370 2851 c-168 -100 -317 -193 -332 -206 -48 -46 -48 -124 0 -170
15 -13 164 -106 331 -205 218 -129 313 -180 335 -180 44 0 95 35 112 77 14 33
14 48 0 153 -9 64 -16 172 -16 240 0 68 7 176 16 240 14 104 14 120 1 153 -18
42 -53 67 -104 74 -35 4 -63 -10 -343 -176z m180 -290 l0 -110 -90 52 c-49 29
-89 54 -89 57 0 4 160 103 177 109 1 1 2 -48 2 -108z"/>
<path d="M4360 3012 c-21 -10 -42 -32 -53 -55 -18 -36 -18 -43 -3 -153 20
-147 20 -340 0 -487 -14 -102 -14 -118 0 -150 17 -42 68 -77 112 -77 22 0 117
51 335 180 167 99 316 192 331 205 30 29 43 71 33 115 -4 16 -19 41 -33 55
-46 43 -633 385 -661 385 -14 0 -42 -8 -61 -18z m389 -452 c0 -3 -40 -28 -89
-57 l-90 -52 0 109 0 109 90 -52 c49 -29 89 -54 89 -57z"/>
<path d="M975 1613 c-34 -9 -72 -41 -83 -70 -6 -16 -49 -180 -96 -365 -92
-363 -93 -373 -44 -425 47 -51 62 -49 427 43 185 47 348 90 364 96 61 24 92
124 55 177 -9 12 -56 53 -105 91 -114 88 -245 219 -333 333 -38 49 -77 95 -87
102 -22 16 -72 25 -98 18z m163 -474 c40 -39 71 -73 68 -76 -5 -6 -189 -53
-193 -50 -2 3 7 42 38 160 5 20 11 37 12 37 2 0 35 -32 75 -71z"/>
<path d="M4083 1613 c-29 -6 -58 -34 -131 -131 -82 -107 -207 -232 -322 -320
-51 -39 -99 -81 -108 -93 -37 -53 -6 -153 55 -177 16 -6 179 -49 365 -96 362
-92 373 -93 424 -45 52 49 52 57 -41 425 -47 186 -91 351 -97 367 -19 48 -87
82 -145 70z m-14 -440 c31 -118 40 -157 38 -160 -3 -3 -187 44 -193 49 -4 5
128 145 138 147 4 1 12 -16 17 -36z"/>
<path d="M2163 815 c-39 -17 -63 -52 -70 -102 -4 -35 10 -63 176 -343 100
-168 193 -317 206 -332 14 -14 39 -29 55 -33 44 -10 86 3 115 33 21 23 328
530 371 614 31 60 2 137 -63 164 -33 14 -48 14 -153 0 -144 -20 -343 -20 -475
-1 -121 18 -122 18 -162 0z m454 -355 c-29 -49 -54 -89 -57 -89 -3 0 -28 40
-57 89 l-52 90 109 0 109 0 -52 -90z"/>
</g>
</svg>
